<svg width="799" height="577" viewBox="0 0 799 577" fill="none" xmlns="http://www.w3.org/2000/svg">
<path d="M199.069 544.269C162.314 554.118 131.148 552.334 105.573 538.919C80.2638 525.433 62.4116 501.955 52.0164 468.486C49.6804 460.834 46.2287 448.484 41.6612 431.438C37.0938 414.393 33.9084 401.972 32.1051 394.177C24.3211 360.865 28.3186 332.103 44.0977 307.893C59.8054 283.416 85.7706 266.324 121.993 256.619C146.497 250.053 168.68 248.676 188.542 252.489C208.6 255.964 224.833 262.748 237.243 272.839C249.582 282.665 257.623 293.499 261.367 305.341C262.009 307.738 261.746 309.95 260.576 311.976C259.406 314.003 257.489 315.373 254.826 316.086L212.877 327.326C210.213 328.04 208.073 328.043 206.456 327.334C204.839 326.626 203.176 325.216 201.469 323.104C195.099 314.248 186.326 307.607 175.148 303.18C163.971 298.753 150.392 298.68 134.411 302.962C115.767 307.958 102.474 316.944 94.5323 329.919C86.7855 342.557 85.4647 359.468 90.57 380.652C92.3733 388.447 95.3802 400.202 99.5908 415.916C103.73 431.364 107.003 443.048 109.411 450.967C115.724 472.398 125.599 486.879 139.036 494.412C152.402 501.679 168.407 502.814 187.051 497.818C205.961 492.751 219.787 483.623 228.528 470.433C237.268 457.243 238.927 440.527 233.503 420.285L230.184 407.9L181.444 420.96C178.78 421.674 176.267 421.348 173.903 419.984C171.539 418.619 170 416.605 169.286 413.941L163.398 391.968C162.685 389.305 163.01 386.791 164.375 384.427C165.74 382.063 167.754 380.524 170.418 379.81L266.301 354.118C269.231 353.333 271.878 353.623 274.242 354.988C276.606 356.353 278.144 358.367 278.858 361.031L290.205 403.379C296.129 425.486 296.376 446.116 290.946 465.27C285.444 484.157 274.815 500.422 259.059 514.064C243.303 527.706 223.306 537.775 199.069 544.269Z" fill="#DD8012" fill-opacity="0.2"/>
<path d="M425.662 483.554C412.079 487.193 398.847 487.884 385.967 485.626C373.282 483.03 362.361 477.963 353.205 470.425C344.315 462.816 338.371 453.418 335.374 442.232C330.521 424.121 333.92 407.509 345.571 392.398C357.223 377.286 375.298 364.307 399.796 353.461L452.389 330.805L450.141 322.415C447.072 310.962 441.823 303.091 434.393 298.802C426.964 294.512 416.857 294.08 404.072 297.506C395.283 299.861 388.653 303.35 384.182 307.974C379.712 312.597 376.209 317.104 373.675 321.494C371.335 325.547 369.775 328.248 368.995 329.599C368.786 333.081 367.217 335.214 364.287 335.999L333.125 344.349C330.728 344.991 328.383 344.763 326.091 343.665C324.064 342.495 322.694 340.578 321.981 337.915C320.463 331.185 321.661 322.871 325.574 312.973C329.683 302.737 337.442 292.808 348.851 283.185C360.189 273.295 375.446 265.782 394.623 260.643C426.052 252.222 450.848 253.143 469.013 263.405C487.178 273.667 499.329 290.251 505.467 313.157L539.081 438.604C539.794 441.268 539.469 443.782 538.104 446.146C537.005 448.438 534.991 449.977 532.061 450.762L498.902 459.647C496.238 460.361 493.725 460.035 491.361 458.67C488.997 457.306 487.458 455.291 486.744 452.628L482.569 437.047C478.993 447.14 472.628 456.41 463.473 464.858C454.247 473.04 441.643 479.272 425.662 483.554ZM428.969 441.56C443.618 437.635 454.319 429.63 461.072 417.543C467.824 405.457 468.774 390.359 463.922 372.247L461.781 364.257L423.542 381.354C394.197 394.355 381.63 408.713 385.841 424.427C388.124 432.95 393.371 438.681 401.58 441.62C409.985 444.221 419.114 444.201 428.969 441.56Z" fill="#DD8012" fill-opacity="0.2"/>
<path d="M602.482 431.893C599.819 432.607 597.305 432.281 594.941 430.916C592.577 429.551 591.038 427.537 590.324 424.874L539.797 236.303C539.012 233.373 539.338 230.859 540.774 228.762C542.139 226.398 544.153 224.859 546.816 224.145L578.378 215.688C581.308 214.903 583.821 215.229 585.919 216.665C588.212 217.764 589.75 219.778 590.535 222.708L594.175 236.291C603.705 214.326 620.588 200.096 644.825 193.602C674.389 185.68 698.207 192.002 716.278 212.566C719.815 200.199 726.587 189.25 736.593 179.718C746.528 169.919 758.287 163.2 771.871 159.56C793.711 153.708 813.554 156.384 831.401 167.588C849.247 178.792 861.988 198.644 869.625 227.143L900.348 341.803C901.061 344.467 900.736 346.98 899.371 349.344C898.273 351.637 896.258 353.176 893.329 353.961L860.169 362.846C857.505 363.56 854.992 363.234 852.628 361.869C850.264 360.504 848.725 358.49 848.011 355.827L818.145 244.362C813.649 227.583 806.806 216.427 797.616 210.897C788.693 205.295 778.505 204.028 767.052 207.097C756.665 209.88 748.777 216.133 743.389 225.855C738.196 235.239 737.812 248.188 742.237 264.702L772.104 376.166C772.817 378.83 772.492 381.343 771.127 383.707C770.028 386 768.014 387.539 765.084 388.324L731.525 397.316C728.862 398.03 726.348 397.704 723.984 396.339C721.62 394.974 720.081 392.96 719.368 390.297L689.501 278.832C685.076 262.319 678.269 251.297 669.079 245.766C659.819 239.969 649.595 238.569 638.409 241.567C628.021 244.35 620.133 250.603 614.746 260.325C609.553 269.709 609.168 282.658 613.593 299.172L643.46 410.636C644.174 413.3 643.848 415.813 642.483 418.177C641.385 420.47 639.371 422.009 636.441 422.794L602.482 431.893Z" fill="#DD8012" fill-opacity="0.2"/>
<path d="M897.009 93.9146C894.345 94.6283 891.831 94.3027 889.467 92.9379C887.104 91.573 885.565 89.5589 884.851 86.8955L877.036 57.731C876.251 54.8012 876.541 52.1543 877.906 49.7903C879.271 47.4263 881.285 45.8875 883.949 45.1739L920.704 35.3253C923.634 34.5403 926.28 34.8302 928.644 36.195C931.008 37.5599 932.583 39.7072 933.368 42.637L941.183 71.8015C941.896 74.465 941.437 77.0143 939.806 79.4496C938.442 81.8136 936.427 83.3524 933.764 84.0661L897.009 93.9146ZM963.372 335.193C960.708 335.906 958.195 335.581 955.831 334.216C953.467 332.851 951.928 330.837 951.214 328.174L900.687 139.603C899.902 136.673 900.227 134.159 901.663 132.062C903.028 129.698 905.042 128.159 907.706 127.445L941.665 118.346C944.328 117.632 946.842 117.958 949.206 119.323C951.57 120.688 953.108 122.702 953.822 125.365L1004.35 313.936C1005.06 316.599 1004.74 319.113 1003.37 321.477C1002.01 323.841 999.994 325.38 997.33 326.094L963.372 335.193Z" fill="#DD8012" fill-opacity="0.2"/>
<path d="M1139.69 292.231C1119.45 297.655 1101.71 299.123 1086.49 296.637C1071.26 294.151 1059.25 289.805 1050.45 283.599C1041.85 277.055 1036.76 270.853 1035.19 264.994C1034.48 262.33 1034.7 259.985 1035.87 257.959C1037.31 255.862 1039.23 254.492 1041.62 253.849L1074.38 245.071C1076.51 244.5 1078.66 245.066 1080.83 246.769C1082.45 247.477 1086.06 249.222 1091.66 252.004C1097.52 254.715 1103.7 256.484 1110.21 257.311C1116.9 257.8 1123.85 257.081 1131.04 255.154C1141.69 252.3 1149.81 247.983 1155.4 242.203C1160.92 236.158 1162.64 229.273 1160.57 221.549C1159.14 216.222 1156.4 212.389 1152.35 210.049C1148.49 207.372 1142.21 205.772 1133.51 205.249C1125 204.389 1112.43 204.333 1095.78 205.081C1071.86 206.353 1053.12 203.525 1039.56 196.596C1026.26 189.596 1017.44 177.973 1013.09 161.726C1010.23 151.072 1010.75 140.228 1014.65 129.193C1018.47 117.892 1025.85 107.634 1036.8 98.4206C1047.94 88.8692 1062.31 81.7384 1079.88 77.0281C1098 72.1753 1114.36 70.9301 1128.98 73.2927C1143.53 75.3889 1155.21 79.5401 1164.01 85.7463C1173.07 91.881 1178.43 98.0114 1180.07 104.137C1180.71 106.534 1180.35 108.915 1178.98 111.279C1177.81 113.305 1176.03 114.639 1173.63 115.282L1143.67 123.31C1140.74 124.095 1138.19 123.637 1136.02 121.934C1133.8 121.102 1130.09 119.526 1124.91 117.205C1119.91 114.547 1114.6 112.83 1108.97 112.055C1103.34 111.281 1096.92 111.857 1089.73 113.783C1079.88 116.424 1072.86 120.589 1068.67 126.278C1064.49 131.966 1063.32 138.273 1065.18 145.198C1066.46 149.992 1068.73 153.666 1071.99 156.22C1075.51 158.703 1081.52 160.374 1090.03 161.234C1098.47 161.828 1110.8 161.52 1127.04 160.311C1177.47 156.787 1207.05 171.272 1215.75 203.765C1220.82 222.676 1216.67 240.203 1203.3 256.347C1190.19 272.419 1168.99 284.38 1139.69 292.231Z" fill="#DD8012" fill-opacity="0.2"/>
<path d="M1365.9 231.619C1334.47 240.04 1308.09 238.544 1286.76 227.131C1265.43 215.718 1250.32 196.074 1241.42 168.198L1236.31 150.727L1232 133.041C1225.84 104.718 1229.28 80.2469 1242.31 59.6275C1255.27 38.7417 1277.19 24.1596 1308.09 15.8811C1338.72 7.67393 1364.87 9.37444 1386.53 20.9825C1408.13 32.3243 1423.33 51.7998 1432.16 79.409C1433.28 82.5337 1434.99 88.3576 1437.27 96.8806C1439.55 105.404 1440.99 111.299 1441.58 114.566C1447.81 143.155 1444.55 167.724 1431.78 188.272C1419.02 208.82 1397.06 223.269 1365.9 231.619ZM1355.08 191.268C1369.2 187.486 1378.81 180.201 1383.91 169.413C1389.28 158.554 1389.95 144.53 1385.91 127.342C1385.46 124.607 1384.21 119.377 1382.14 111.653C1380.07 103.929 1378.54 98.7715 1377.56 96.1794C1372.46 79.2762 1364.87 67.4647 1354.79 60.745C1344.64 53.759 1332.64 52.1215 1318.79 55.8325C1304.68 59.615 1294.97 67.0688 1289.67 78.1941C1284.3 89.0531 1283.64 103.077 1287.67 120.266L1291.45 135.954L1296.02 151.428C1301.12 168.331 1308.71 180.142 1318.79 186.862C1328.87 193.582 1340.97 195.05 1355.08 191.268Z" fill="#DD8012" fill-opacity="0.2"/>
<path d="M1538.98 180.959C1536.32 181.673 1533.8 181.347 1531.44 179.983C1529.07 178.618 1527.53 176.604 1526.82 173.94L1485.18 18.5291L1452.82 27.2001C1450.15 27.9138 1447.64 27.5882 1445.28 26.2233C1442.91 24.8585 1441.37 22.8444 1440.66 20.1809L1434.34 -3.39043C1433.63 -6.05387 1433.96 -8.56757 1435.32 -10.9315C1436.69 -13.2955 1438.7 -14.8343 1441.36 -15.548L1473.72 -24.219L1469.44 -40.1996C1462.95 -64.4368 1464.66 -84.1634 1474.57 -99.3795C1484.41 -114.862 1502.51 -126.136 1528.88 -133.201L1556.44 -140.587C1559.11 -141.301 1561.62 -140.975 1563.99 -139.611C1566.35 -138.246 1567.89 -136.232 1568.6 -133.568L1574.92 -109.997C1575.63 -107.333 1575.31 -104.82 1573.94 -102.456C1572.58 -100.092 1570.56 -98.553 1567.9 -97.8394L1542.33 -90.9882C1531.94 -88.2049 1525.3 -83.712 1522.39 -77.5096C1519.48 -71.3073 1519.46 -62.8792 1522.31 -52.2255L1526.06 -38.2425L1576 -51.6237C1578.66 -52.3374 1581.18 -52.0118 1583.54 -50.647C1585.91 -49.2821 1587.44 -47.268 1588.16 -44.6046L1594.47 -21.0332C1595.19 -18.3698 1594.86 -15.8561 1593.5 -13.4921C1592.13 -11.1281 1590.12 -9.58932 1587.45 -8.87564L1537.52 4.50554L1579.16 159.917C1579.87 162.58 1579.55 165.094 1578.18 167.458C1577.08 169.75 1575.07 171.289 1572.14 172.074L1538.98 180.959Z" fill="#DD8012" fill-opacity="0.2"/>
<path d="M1767.12 119.83C1742.88 126.324 1722.96 124.954 1707.35 115.718C1691.67 106.217 1680.55 89.2143 1673.99 64.7107L1649.79 -25.5795L1618.23 -17.1227C1615.57 -16.409 1613.06 -16.7346 1610.69 -18.0994C1608.33 -19.4642 1606.79 -21.4783 1606.07 -24.1418L1599.76 -47.7131C1599.05 -50.3766 1599.37 -52.8903 1600.74 -55.2543C1602.1 -57.6182 1604.11 -59.157 1606.78 -59.8707L1638.34 -68.3276L1620.57 -134.647C1619.78 -137.577 1620.11 -140.09 1621.55 -142.188C1622.91 -144.552 1624.93 -146.091 1627.59 -146.805L1660.75 -155.69C1663.68 -156.475 1666.19 -156.149 1668.29 -154.713C1670.58 -153.614 1672.12 -151.6 1672.91 -148.671L1690.68 -82.3511L1740.62 -95.7323C1743.28 -96.446 1745.79 -96.1204 1748.16 -94.7555C1750.52 -93.3907 1752.06 -91.3766 1752.77 -88.7131L1759.09 -65.1418C1759.8 -62.4783 1759.48 -59.9646 1758.11 -57.6007C1756.75 -55.2367 1754.73 -53.6979 1752.07 -52.9843L1702.13 -39.6031L1725.15 46.2926C1728.22 57.7453 1732.53 65.8662 1738.1 70.6553C1743.66 75.4443 1750.97 76.6256 1760.03 74.1992L1787.99 66.7057C1790.92 65.9207 1793.44 66.2463 1795.54 67.6825C1797.83 68.781 1799.37 70.7951 1800.15 73.7249L1806.9 98.8943C1807.61 101.558 1807.28 104.071 1805.92 106.435C1804.82 108.728 1802.81 110.267 1799.88 111.052L1767.12 119.83Z" fill="#DD8012" fill-opacity="0.2"/>
</svg>
