<svg width="546" height="761" viewBox="0 0 546 761" fill="none" xmlns="http://www.w3.org/2000/svg">
<path fill-rule="evenodd" clip-rule="evenodd" d="M212.277 154.294C197.496 99.1324 140.841 66.3854 85.6359 81.1776V81.1776C30.4295 95.9702 -2.26079 152.657 12.5197 207.819C27.3002 262.98 83.9543 295.727 139.161 280.935C194.366 266.143 227.057 209.455 212.277 154.294ZM-7.07176 534.217C48.1347 519.424 80.8247 462.736 66.0445 407.576C51.264 352.414 -5.39015 319.667 -60.5966 334.46C-115.803 349.252 -148.493 405.939 -133.713 461.101V461.101C-118.933 516.261 -62.2782 549.01 -7.07176 534.217ZM392.443 427.167C447.648 412.375 480.339 355.687 465.559 300.526C450.779 245.365 394.123 212.618 338.918 227.41C283.713 242.202 251.021 298.89 265.802 354.051C280.582 409.212 337.237 441.96 392.443 427.167ZM192.686 480.692C247.891 465.9 304.546 498.648 319.327 553.808C334.107 608.969 301.416 665.657 246.21 680.449C191.004 695.242 134.349 662.494 119.569 607.333C104.789 552.173 137.479 495.485 192.686 480.692Z" fill="#DD8012" fill-opacity="0.2"/>
</svg>
